<svg width="422" height="690" viewBox="0 0 422 690" fill="none" xmlns="http://www.w3.org/2000/svg">
<mask id="path-1-inside-1_215_639" fill="white">
<path d="M-233.389 471.978C-246.981 462.092 -250.005 443.085 -240.142 429.525L-199.962 374.283C-190.099 360.723 -171.085 357.746 -157.493 367.632L-102.118 407.909C-88.5254 417.795 -85.5018 436.802 -95.3644 450.362L-135.545 505.604C-145.407 519.164 -164.421 522.142 -178.014 512.255L-233.389 471.978Z"/>
<path d="M-157.493 367.632C-171.085 357.746 -174.109 338.739 -164.246 325.179L-124.066 269.937C-114.204 256.377 -95.1896 253.399 -81.5972 263.286L-26.222 303.563C-12.6296 313.449 -9.60602 332.456 -19.4686 346.016L-59.6487 401.258C-69.5113 414.817 -88.5254 417.795 -102.118 407.909L-157.493 367.632Z"/>
<path d="M-81.5972 263.286C-95.1896 253.399 -98.2133 234.393 -88.3506 220.833L-48.1705 165.591C-38.3079 152.031 -19.2939 149.053 -5.70148 158.94L49.6738 199.216C63.2662 209.103 66.2897 228.11 56.4271 241.669L16.247 296.912C6.38441 310.471 -12.6296 313.449 -26.222 303.563L-81.5972 263.286Z"/>
<path d="M-5.70148 158.94C-19.2939 149.053 -22.3175 130.046 -12.4549 116.487L27.7253 61.2445C37.5879 47.6848 56.6019 44.7069 70.1943 54.5933L125.57 94.8702C139.162 104.757 142.186 123.763 132.323 137.323L92.1428 192.565C82.2802 206.125 63.2662 209.103 49.6738 199.216L-5.70148 158.94Z"/>
<path d="M70.1943 54.5933C56.6019 44.7069 53.5783 25.7001 63.4409 12.1404L103.621 -43.1017C113.484 -56.6615 132.498 -59.6393 146.09 -49.7529L201.465 -9.476C215.058 0.410373 218.081 19.4172 208.219 32.9769L168.039 88.219C158.176 101.779 139.162 104.757 125.57 94.8702L70.1943 54.5933Z"/>
<path d="M146.09 -49.7529C132.498 -59.6393 129.474 -78.6461 139.337 -92.2059L179.517 -147.448C189.379 -161.008 208.393 -163.986 221.986 -154.099L277.361 -113.822C290.953 -103.936 293.977 -84.929 284.114 -71.3693L243.934 -16.1272C234.072 -2.56748 215.058 0.410373 201.465 -9.476L146.09 -49.7529Z"/>
<path d="M-128.791 548.057C-142.384 538.171 -145.407 519.164 -135.545 505.604L-95.3644 450.362C-85.5018 436.802 -66.4877 433.824 -52.8953 443.711L2.47989 483.988C16.0723 493.874 19.0959 512.881 9.23327 526.44L-30.9468 581.683C-40.8095 595.242 -59.8235 598.22 -73.4159 588.334L-128.791 548.057Z"/>
<path d="M-52.8953 443.711C-66.4877 433.824 -69.5113 414.817 -59.6487 401.258L-19.4686 346.016C-9.60602 332.456 9.40803 329.478 23.0004 339.364L78.3757 379.641C91.9681 389.528 94.9916 408.535 85.129 422.094L44.9489 477.336C35.0863 490.896 16.0723 493.874 2.47989 483.988L-52.8953 443.711Z"/>
<path d="M23.0004 339.364C9.40803 329.478 6.38441 310.471 16.247 296.912L56.4271 241.669C66.2897 228.11 85.3038 225.132 98.8962 235.018L154.271 275.295C167.864 285.181 170.887 304.188 161.025 317.748L120.845 372.99C110.982 386.55 91.9681 389.528 78.3757 379.641L23.0004 339.364Z"/>
<path d="M98.8962 235.018C85.3038 225.132 82.2802 206.125 92.1428 192.565L132.323 137.323C142.186 123.763 161.2 120.786 174.792 130.672L230.167 170.949C243.76 180.835 246.783 199.842 236.921 213.402L196.74 268.644C186.878 282.204 167.864 285.181 154.271 275.295L98.8962 235.018Z"/>
<path d="M174.792 130.672C161.2 120.786 158.176 101.779 168.039 88.219L208.219 32.9769C218.081 19.4172 237.095 16.4394 250.688 26.3257L306.063 66.6026C319.655 76.489 322.679 95.4958 312.816 109.056L272.636 164.298C262.774 177.857 243.76 180.835 230.167 170.949L174.792 130.672Z"/>
<path d="M250.688 26.3257C237.095 16.4394 234.072 -2.56748 243.934 -16.1272L284.114 -71.3693C293.977 -84.929 312.991 -87.9069 326.584 -78.0205L381.959 -37.7436C395.551 -27.8572 398.575 -8.8504 388.712 4.70933L348.532 59.9514C338.669 73.5112 319.655 76.489 306.063 66.6026L250.688 26.3257Z"/>
<path d="M-24.1935 624.136C-37.7859 614.249 -40.8095 595.242 -30.9468 581.683L9.23327 526.44C19.0959 512.881 38.1099 509.903 51.7023 519.789L107.078 560.066C120.67 569.953 123.694 588.959 113.831 602.519L73.6508 657.761C63.7882 671.321 44.7742 674.299 31.1818 664.412L-24.1935 624.136Z"/>
<path d="M51.7023 519.789C38.1099 509.903 35.0863 490.896 44.9489 477.336L85.129 422.094C94.9916 408.535 114.006 405.557 127.598 415.443L182.973 455.72C196.566 465.606 199.589 484.613 189.727 498.173L149.547 553.415C139.684 566.975 120.67 569.953 107.078 560.066L51.7023 519.789Z"/>
<path d="M127.598 415.443C114.006 405.557 110.982 386.55 120.845 372.99L161.025 317.748C170.887 304.188 189.901 301.21 203.494 311.097L258.869 351.374C272.461 361.26 275.485 380.267 265.622 393.827L225.442 449.069C215.58 462.629 196.566 465.606 182.973 455.72L127.598 415.443Z"/>
<path d="M203.494 311.097C189.901 301.21 186.878 282.204 196.74 268.644L236.921 213.402C246.783 199.842 265.797 196.864 279.39 206.751L334.765 247.028C348.357 256.914 351.381 275.921 341.518 289.48L301.338 344.723C291.476 358.282 272.461 361.26 258.869 351.374L203.494 311.097Z"/>
<path d="M279.39 206.751C265.797 196.864 262.774 177.857 272.636 164.298L312.816 109.056C322.679 95.4958 341.693 92.518 355.285 102.404L410.661 142.681C424.253 152.568 427.277 171.574 417.414 185.134L377.234 240.376C367.371 253.936 348.357 256.914 334.765 247.028L279.39 206.751Z"/>
<path d="M355.285 102.404C341.693 92.518 338.669 73.5112 348.532 59.9514L388.712 4.70933C398.575 -8.8504 417.589 -11.8283 431.181 -1.94188L486.556 38.335C500.149 48.2214 503.172 67.2282 493.31 80.788L453.13 136.03C443.267 149.59 424.253 152.568 410.661 142.681L355.285 102.404Z"/>
<path d="M80.4042 700.214C66.8118 690.328 63.7882 671.321 73.6508 657.761L113.831 602.519C123.694 588.959 142.708 585.982 156.3 595.868L211.675 636.145C225.268 646.031 228.291 665.038 218.429 678.598L178.248 733.84C168.386 747.4 149.372 750.377 135.779 740.491L80.4042 700.214Z"/>
<path d="M156.3 595.868C142.708 585.982 139.684 566.975 149.547 553.415L189.727 498.173C199.589 484.613 218.603 481.635 232.196 491.522L287.571 531.799C301.163 541.685 304.187 560.692 294.324 574.252L254.144 629.494C244.282 643.053 225.268 646.031 211.675 636.145L156.3 595.868Z"/>
<path d="M232.196 491.522C218.603 481.635 215.58 462.629 225.442 449.069L265.622 393.827C275.485 380.267 294.499 377.289 308.092 387.175L363.467 427.452C377.059 437.339 380.083 456.346 370.22 469.905L330.04 525.147C320.177 538.707 301.163 541.685 287.571 531.799L232.196 491.522Z"/>
<path d="M308.092 387.175C294.499 377.289 291.476 358.282 301.338 344.723L341.518 289.48C351.381 275.921 370.395 272.943 383.987 282.829L439.363 323.106C452.955 332.993 455.979 351.999 446.116 365.559L405.936 420.801C396.073 434.361 377.059 437.339 363.467 427.452L308.092 387.175Z"/>
<path d="M383.987 282.829C370.395 272.943 367.371 253.936 377.234 240.376L417.414 185.134C427.277 171.574 446.291 168.597 459.883 178.483L515.258 218.76C528.851 228.646 531.874 247.653 522.012 261.213L481.832 316.455C471.969 330.015 452.955 332.993 439.363 323.106L383.987 282.829Z"/>
<path d="M459.883 178.483C446.291 168.597 443.267 149.59 453.13 136.03L493.31 80.788C503.172 67.2282 522.186 64.2504 535.779 74.1368L591.154 114.414C604.746 124.3 607.77 143.307 597.907 156.867L557.727 212.109C547.865 225.668 528.851 228.646 515.258 218.76L459.883 178.483Z"/>
<path d="M185.002 776.293C171.409 766.406 168.386 747.4 178.248 733.84L218.429 678.598C228.291 665.038 247.305 662.06 260.898 671.947L316.273 712.224C329.865 722.11 332.889 741.117 323.026 754.676L282.846 809.919C272.984 823.478 253.97 826.456 240.377 816.57L185.002 776.293Z"/>
<path d="M260.898 671.947C247.305 662.06 244.282 643.053 254.144 629.494L294.324 574.252C304.187 560.692 323.201 557.714 336.793 567.6L392.169 607.877C405.761 617.764 408.785 636.77 398.922 650.33L358.742 705.572C348.879 719.132 329.865 722.11 316.273 712.224L260.898 671.947Z"/>
<path d="M336.793 567.6C323.201 557.714 320.177 538.707 330.04 525.147L370.22 469.905C380.083 456.346 399.097 453.368 412.689 463.254L468.064 503.531C481.657 513.417 484.68 532.424 474.818 545.984L434.638 601.226C424.775 614.786 405.761 617.764 392.169 607.877L336.793 567.6Z"/>
<path d="M412.689 463.254C399.097 453.368 396.073 434.361 405.936 420.801L446.116 365.559C455.979 351.999 474.993 349.022 488.585 358.908L543.96 399.185C557.553 409.071 560.576 428.078 550.714 441.638L510.533 496.88C500.671 510.44 481.657 513.417 468.064 503.531L412.689 463.254Z"/>
<path d="M488.585 358.908C474.993 349.022 471.969 330.015 481.832 316.455L522.012 261.213C531.874 247.653 550.888 244.675 564.481 254.562L619.856 294.839C633.448 304.725 636.472 323.732 626.609 337.292L586.429 392.534C576.567 406.093 557.553 409.071 543.96 399.185L488.585 358.908Z"/>
<path d="M564.481 254.562C550.888 244.675 547.865 225.668 557.727 212.109L597.907 156.867C607.77 143.307 626.784 140.329 640.377 150.215L695.752 190.492C709.344 200.379 712.368 219.386 702.505 232.945L662.325 288.187C652.462 301.747 633.448 304.725 619.856 294.839L564.481 254.562Z"/>
</mask>
<path d="M-157.787 368.036L-102.412 408.313L-101.824 407.505L-157.199 367.228L-157.787 368.036ZM-95.7687 450.068L-135.949 505.31L-135.14 505.898L-94.96 450.656L-95.7687 450.068ZM-81.8914 263.69L-26.5161 303.967L-25.9279 303.158L-81.3031 262.881L-81.8914 263.69ZM-19.873 345.722L-60.0531 400.964L-59.2444 401.552L-19.0643 346.31L-19.873 345.722ZM-5.99558 159.344L49.3797 199.621L49.9679 198.812L-5.40737 158.535L-5.99558 159.344ZM56.0228 241.375L15.8427 296.617L16.6514 297.206L56.8315 241.963L56.0228 241.375ZM69.9002 54.9977L125.275 95.2746L125.864 94.4659L70.4884 54.189L69.9002 54.9977ZM131.919 137.029L91.7384 192.271L92.5471 192.859L132.727 137.617L131.919 137.029ZM145.796 -49.3486L201.171 -9.07164L201.759 -9.88035L146.384 -50.1573L145.796 -49.3486ZM207.814 32.6828L167.634 87.9249L168.443 88.5131L208.623 33.271L207.814 32.6828ZM283.71 -71.6634L243.53 -16.4213L244.339 -15.8331L284.519 -71.0752L283.71 -71.6634ZM-53.1894 444.115L2.18579 484.392L2.774 483.583L-52.6012 443.306L-53.1894 444.115ZM8.82891 526.146L-31.3512 581.389L-30.5425 581.977L9.63762 526.735L8.82891 526.146ZM22.7063 339.769L78.0816 380.046L78.6698 379.237L23.2945 338.96L22.7063 339.769ZM84.7247 421.8L44.5446 477.042L45.3533 477.63L85.5334 422.388L84.7247 421.8ZM98.6021 235.423L153.977 275.699L154.566 274.891L99.1903 234.614L98.6021 235.423ZM160.62 317.454L120.44 372.696L121.249 373.284L161.429 318.042L160.62 317.454ZM174.498 131.076L229.873 171.353L230.461 170.545L175.086 130.268L174.498 131.076ZM236.516 213.108L196.336 268.35L197.145 268.938L237.325 213.696L236.516 213.108ZM250.394 26.7301L305.769 67.007L306.357 66.1983L250.982 25.9214L250.394 26.7301ZM312.412 108.761L272.232 164.004L273.041 164.592L313.221 109.35L312.412 108.761ZM388.308 4.41522L348.128 59.6573L348.936 60.2455L389.116 5.00343L388.308 4.41522ZM51.4082 520.194L106.783 560.471L107.372 559.662L51.9964 519.385L51.4082 520.194ZM113.427 602.225L73.2465 657.467L74.0552 658.055L114.235 602.813L113.427 602.225ZM127.304 415.847L182.679 456.124L183.267 455.316L127.892 415.039L127.304 415.847ZM189.322 497.879L149.142 553.121L149.951 553.709L190.131 498.467L189.322 497.879ZM203.2 311.501L258.575 351.778L259.163 350.969L203.788 310.692L203.2 311.501ZM265.218 393.533L225.038 448.775L225.847 449.363L266.027 394.121L265.218 393.533ZM279.096 207.155L334.471 247.432L335.059 246.623L279.684 206.346L279.096 207.155ZM341.114 289.186L300.934 344.428L301.742 345.017L341.923 289.775L341.114 289.186ZM354.991 102.809L410.367 143.086L410.955 142.277L355.58 102L354.991 102.809ZM417.01 184.84L376.83 240.082L377.638 240.67L417.818 185.428L417.01 184.84ZM492.905 80.4939L452.725 135.736L453.534 136.324L493.714 81.0821L492.905 80.4939ZM156.006 596.272L211.381 636.549L211.969 635.741L156.594 595.464L156.006 596.272ZM218.024 678.304L177.844 733.546L178.653 734.134L218.833 678.892L218.024 678.304ZM231.902 491.926L287.277 532.203L287.865 531.394L232.49 491.117L231.902 491.926ZM293.92 573.957L253.74 629.2L254.549 629.788L294.729 574.546L293.92 573.957ZM307.797 387.58L363.173 427.857L363.761 427.048L308.386 386.771L307.797 387.58ZM369.816 469.611L329.636 524.853L330.444 525.442L370.624 470.199L369.816 469.611ZM383.693 283.234L439.068 323.511L439.657 322.702L384.281 282.425L383.693 283.234ZM445.712 365.265L405.531 420.507L406.34 421.095L446.52 365.853L445.712 365.265ZM459.589 178.887L514.964 219.164L515.552 218.356L460.177 178.079L459.589 178.887ZM521.607 260.919L481.427 316.161L482.236 316.749L522.416 261.507L521.607 260.919ZM597.503 156.573L557.323 211.815L558.132 212.403L598.312 157.161L597.503 156.573ZM260.604 672.351L315.979 712.628L316.567 711.819L261.192 671.542L260.604 672.351ZM336.499 568.005L391.875 608.282L392.463 607.473L337.088 567.196L336.499 568.005ZM412.395 463.658L467.77 503.935L468.359 503.127L412.983 462.85L412.395 463.658ZM488.291 359.312L543.666 399.589L544.254 398.78L488.879 358.504L488.291 359.312ZM564.187 254.966L619.562 295.243L620.15 294.434L564.775 254.157L564.187 254.966ZM-239.333 430.114L-199.153 374.871L-200.771 373.695L-240.951 428.937L-239.333 430.114ZM-177.425 511.446L-232.801 471.17L-233.977 472.787L-178.602 513.064L-177.425 511.446ZM-136.353 505.016C-145.89 518.127 -164.278 521.009 -177.425 511.446L-178.602 513.064C-164.565 523.274 -144.925 520.2 -134.736 506.192L-136.353 505.016ZM-102.706 408.718C-89.5584 418.281 -86.6367 436.662 -96.1731 449.774L-94.5557 450.95C-84.3669 436.942 -87.4924 417.31 -101.53 407.1L-102.706 408.718ZM-199.153 374.871C-189.617 361.76 -171.229 358.878 -158.081 368.441L-156.905 366.823C-170.942 356.613 -190.582 359.687 -200.771 373.695L-199.153 374.871ZM-240.951 428.937C-251.14 442.945 -248.014 462.577 -233.977 472.787L-232.801 471.17C-245.948 461.607 -248.87 443.225 -239.333 430.114L-240.951 428.937ZM-163.438 325.767L-123.258 270.525L-124.875 269.349L-165.055 324.591L-163.438 325.767ZM-60.4574 400.67C-69.9939 413.781 -88.382 416.663 -101.53 407.1L-102.706 408.718C-88.6688 418.928 -69.0288 415.854 -58.84 401.846L-60.4574 400.67ZM-26.8102 304.371C-13.6626 313.934 -10.7409 332.316 -20.2773 345.427L-18.6599 346.604C-8.47112 332.596 -11.5966 312.964 -25.6338 302.754L-26.8102 304.371ZM-123.258 270.525C-113.721 257.414 -95.3331 254.532 -82.1855 264.094L-81.009 262.477C-95.0462 252.267 -114.686 255.341 -124.875 269.349L-123.258 270.525ZM-165.055 324.591C-175.244 338.599 -172.118 358.231 -158.081 368.441L-156.905 366.823C-170.052 357.26 -172.974 338.879 -163.438 325.767L-165.055 324.591ZM-87.5419 221.421L-47.3618 166.179L-48.9792 165.003L-89.1594 220.245L-87.5419 221.421ZM15.4383 296.323C5.9019 309.435 -12.4862 312.317 -25.6338 302.754L-26.8102 304.371C-12.773 314.581 6.86694 311.508 17.0557 297.5L15.4383 296.323ZM49.0856 200.025C62.2331 209.588 65.1548 227.97 55.6184 241.081L57.2358 242.258C67.4246 228.249 64.2992 208.618 50.262 198.408L49.0856 200.025ZM-47.3618 166.179C-37.8254 153.068 -19.4373 150.185 -6.28969 159.748L-5.11327 158.131C-19.1505 147.921 -38.7904 150.994 -48.9792 165.003L-47.3618 166.179ZM-89.1594 220.245C-99.3481 234.253 -96.2227 253.885 -82.1855 264.094L-81.009 262.477C-94.1566 252.914 -97.0783 234.532 -87.5419 221.421L-89.1594 220.245ZM-11.6462 117.075L28.534 61.8327L26.9166 60.6563L-13.2636 115.898L-11.6462 117.075ZM91.3341 191.977C81.7977 205.088 63.4096 207.971 50.262 198.408L49.0856 200.025C63.1228 210.235 82.7627 207.162 92.9515 193.153L91.3341 191.977ZM124.981 95.6789C138.129 105.242 141.051 123.624 131.514 136.735L133.132 137.911C143.32 123.903 140.195 104.271 126.158 94.0615L124.981 95.6789ZM28.534 61.8327C38.0704 48.7215 56.4585 45.8392 69.6061 55.402L70.7825 53.7846C56.7453 43.5747 37.1053 46.6481 26.9166 60.6563L28.534 61.8327ZM-13.2636 115.898C-23.4524 129.907 -20.3269 149.538 -6.28969 159.748L-5.11327 158.131C-18.2609 148.568 -21.1826 130.186 -11.6462 117.075L-13.2636 115.898ZM64.2496 12.7286L104.43 -42.5135L102.812 -43.6899L62.6322 11.5522L64.2496 12.7286ZM167.23 87.6308C157.693 100.742 139.305 103.624 126.158 94.0615L124.981 95.6789C139.019 105.889 158.658 102.815 168.847 88.8072L167.23 87.6308ZM200.877 -8.66729C214.025 0.895555 216.946 19.2775 207.41 32.3887L209.027 33.5651C219.216 19.5569 216.091 -0.0748085 202.054 -10.2847L200.877 -8.66729ZM104.43 -42.5135C113.966 -55.6248 132.354 -58.5071 145.502 -48.9442L146.678 -50.5616C132.641 -60.7715 113.001 -57.6981 102.812 -43.6899L104.43 -42.5135ZM62.6322 11.5522C52.4434 25.5604 55.5689 45.1921 69.6061 55.402L70.7825 53.7846C57.6349 44.2218 54.7132 25.8398 64.2496 12.7286L62.6322 11.5522ZM140.145 -91.6176L180.325 -146.86L178.708 -148.036L138.528 -92.7941L140.145 -91.6176ZM221.398 -153.29L276.773 -113.014L277.949 -114.631L222.574 -154.908L221.398 -153.29ZM243.126 -16.7154C233.589 -3.60418 215.201 -0.721861 202.054 -10.2847L200.877 -8.66729C214.914 1.54261 234.554 -1.53079 244.743 -15.539L243.126 -16.7154ZM276.773 -113.014C289.92 -103.451 292.842 -85.0688 283.306 -71.9575L284.923 -70.7811C295.112 -84.7893 291.986 -104.421 277.949 -114.631L276.773 -113.014ZM180.325 -146.86C189.862 -159.971 208.25 -162.853 221.398 -153.29L222.574 -154.908C208.537 -165.118 188.897 -162.044 178.708 -148.036L180.325 -146.86ZM138.528 -92.7941C128.339 -78.7859 131.465 -59.1541 145.502 -48.9442L146.678 -50.5616C133.531 -60.1245 130.609 -78.5064 140.145 -91.6176L138.528 -92.7941ZM-72.8277 587.525L-128.203 547.248L-129.379 548.866L-74.0041 589.143L-72.8277 587.525ZM-31.7556 581.094C-41.292 594.206 -59.6801 597.088 -72.8277 587.525L-74.0041 589.143C-59.9669 599.352 -40.3269 596.279 -30.1381 582.271L-31.7556 581.094ZM1.89168 484.796C15.0393 494.359 17.961 512.741 8.42456 525.852L10.042 527.029C20.2308 513.021 17.1053 493.389 3.0681 483.179L1.89168 484.796ZM-94.5557 450.95C-85.0193 437.839 -66.6312 434.957 -53.4836 444.519L-52.3071 442.902C-66.3443 432.692 -85.9843 435.765 -96.1731 449.774L-94.5557 450.95ZM-136.353 505.016C-146.542 519.024 -143.417 538.656 -129.379 548.866L-128.203 547.248C-141.351 537.685 -144.272 519.303 -134.736 506.192L-136.353 505.016ZM44.1402 476.748C34.6038 489.859 16.2157 492.742 3.0681 483.179L1.89168 484.796C15.9289 495.006 35.5688 491.933 45.7576 477.925L44.1402 476.748ZM77.7875 380.45C90.9351 390.013 93.8567 408.395 84.3203 421.506L85.9377 422.682C96.1265 408.674 93.0011 389.043 78.9639 378.833L77.7875 380.45ZM-18.6599 346.604C-9.12351 333.493 9.26461 330.61 22.4122 340.173L23.5886 338.556C9.55144 328.346 -10.0885 331.419 -20.2773 345.427L-18.6599 346.604ZM-60.4574 400.67C-70.6462 414.678 -67.5208 434.309 -53.4836 444.519L-52.3071 442.902C-65.4547 433.339 -68.3764 414.957 -58.84 401.846L-60.4574 400.67ZM120.036 372.402C110.5 385.513 92.1115 388.395 78.9639 378.833L77.7875 380.45C91.8247 390.66 111.465 387.587 121.653 373.578L120.036 372.402ZM153.683 276.104C166.831 285.667 169.752 304.049 160.216 317.16L161.834 318.336C172.022 304.328 168.897 284.696 154.86 274.486L153.683 276.104ZM57.2358 242.258C66.7722 229.146 85.1604 226.264 98.308 235.827L99.4844 234.209C85.4472 224 65.8072 227.073 55.6184 241.081L57.2358 242.258ZM15.4383 296.323C5.24952 310.331 8.37502 329.963 22.4122 340.173L23.5886 338.556C10.441 328.993 7.51932 310.611 17.0557 297.5L15.4383 296.323ZM195.932 268.056C186.395 281.167 168.007 284.049 154.86 274.486L153.683 276.104C167.72 286.314 187.36 283.24 197.549 269.232L195.932 268.056ZM229.579 171.758C242.727 181.32 245.648 199.702 236.112 212.814L237.729 213.99C247.918 199.982 244.793 180.35 230.755 170.14L229.579 171.758ZM133.132 137.911C142.668 124.8 161.056 121.918 174.204 131.481L175.38 129.863C161.343 119.653 141.703 122.727 131.514 136.735L133.132 137.911ZM91.3341 191.977C81.1453 205.985 84.2708 225.617 98.308 235.827L99.4844 234.209C86.3368 224.647 83.4151 206.265 92.9515 193.153L91.3341 191.977ZM271.828 163.709C262.291 176.821 243.903 179.703 230.755 170.14L229.579 171.758C243.616 181.967 263.256 178.894 273.445 164.886L271.828 163.709ZM305.475 67.4114C318.622 76.9742 321.544 95.3561 312.008 108.467L313.625 109.644C323.814 95.6356 320.688 76.0038 306.651 65.7939L305.475 67.4114ZM209.027 33.5651C218.564 20.4539 236.952 17.5716 250.1 27.1344L251.276 25.517C237.239 15.3071 217.599 18.3805 207.41 32.3887L209.027 33.5651ZM167.23 87.6308C157.041 101.639 160.167 121.271 174.204 131.481L175.38 129.863C162.233 120.3 159.311 101.918 168.847 88.8072L167.23 87.6308ZM325.995 -77.2118L381.371 -36.9349L382.547 -38.5523L327.172 -78.8292L325.995 -77.2118ZM347.723 59.3632C338.187 72.4745 319.799 75.3568 306.651 65.7939L305.475 67.4114C319.512 77.6213 339.152 74.5478 349.341 60.5396L347.723 59.3632ZM381.371 -36.9349C394.518 -27.372 397.44 -8.99013 387.903 4.12112L389.521 5.29754C399.71 -8.71067 396.584 -28.3424 382.547 -38.5523L381.371 -36.9349ZM284.923 -70.7811C294.46 -83.8924 312.848 -86.7747 325.995 -77.2118L327.172 -78.8292C313.135 -89.0391 293.495 -85.9657 283.306 -71.9575L284.923 -70.7811ZM243.126 -16.7154C232.937 -2.70721 236.062 16.9245 250.1 27.1344L251.276 25.517C238.128 15.9542 235.207 -2.42776 244.743 -15.539L243.126 -16.7154ZM31.77 663.604L-23.6052 623.327L-24.7817 624.944L30.5936 665.221L31.77 663.604ZM72.8421 657.173C63.3057 670.284 44.9176 673.167 31.77 663.604L30.5936 665.221C44.6308 675.431 64.2707 672.358 74.4595 658.349L72.8421 657.173ZM106.489 560.875C119.637 570.438 122.559 588.82 113.022 601.931L114.64 603.107C124.828 589.099 121.703 569.467 107.666 559.258L106.489 560.875ZM10.042 527.029C19.5784 513.917 37.9665 511.035 51.1141 520.598L52.2905 518.981C38.2533 508.771 18.6134 511.844 8.42456 525.852L10.042 527.029ZM-31.7556 581.094C-41.9444 595.103 -38.8189 614.734 -24.7817 624.944L-23.6052 623.327C-36.7528 613.764 -39.6746 595.382 -30.1381 582.271L-31.7556 581.094ZM148.738 552.827C139.201 565.938 120.813 568.82 107.666 559.258L106.489 560.875C120.527 571.085 140.167 568.011 150.355 554.003L148.738 552.827ZM182.385 456.529C195.533 466.092 198.454 484.473 188.918 497.585L190.535 498.761C200.724 484.753 197.599 465.121 183.562 454.911L182.385 456.529ZM85.9377 422.682C95.4742 409.571 113.862 406.689 127.01 416.252L128.186 414.634C114.149 404.424 94.5091 407.498 84.3203 421.506L85.9377 422.682ZM44.1402 476.748C33.9514 490.756 37.0769 510.388 51.1141 520.598L52.2905 518.981C39.1429 509.418 36.2212 491.036 45.7576 477.925L44.1402 476.748ZM224.634 448.481C215.097 461.592 196.709 464.474 183.562 454.911L182.385 456.529C196.422 466.739 216.062 463.665 226.251 449.657L224.634 448.481ZM258.281 352.182C271.428 361.745 274.35 380.127 264.814 393.238L266.431 394.415C276.62 380.407 273.495 360.775 259.457 350.565L258.281 352.182ZM161.834 318.336C171.37 305.225 189.758 302.343 202.906 311.906L204.082 310.288C190.045 300.078 170.405 303.152 160.216 317.16L161.834 318.336ZM120.036 372.402C109.847 386.41 112.973 406.042 127.01 416.252L128.186 414.634C115.039 405.072 112.117 386.69 121.653 373.578L120.036 372.402ZM300.529 344.134C290.993 357.246 272.605 360.128 259.457 350.565L258.281 352.182C272.318 362.392 291.958 359.319 302.147 345.311L300.529 344.134ZM334.177 247.836C347.324 257.399 350.246 275.781 340.71 288.892L342.327 290.069C352.516 276.06 349.39 256.429 335.353 246.219L334.177 247.836ZM237.729 213.99C247.266 200.879 265.654 197.996 278.801 207.559L279.978 205.942C265.941 195.732 246.301 198.805 236.112 212.814L237.729 213.99ZM195.932 268.056C185.743 282.064 188.868 301.696 202.906 311.906L204.082 310.288C190.934 300.725 188.013 282.343 197.549 269.232L195.932 268.056ZM376.425 239.788C366.889 252.899 348.501 255.782 335.353 246.219L334.177 247.836C348.214 258.046 367.854 254.973 378.043 240.965L376.425 239.788ZM410.072 143.49C423.22 153.053 426.142 171.435 416.605 184.546L418.223 185.722C428.412 171.714 425.286 152.082 411.249 141.873L410.072 143.49ZM313.625 109.644C323.161 96.5325 341.55 93.6502 354.697 103.213L355.874 101.596C341.836 91.3858 322.196 94.4591 312.008 108.467L313.625 109.644ZM271.828 163.709C261.639 177.718 264.764 197.349 278.801 207.559L279.978 205.942C266.83 196.379 263.909 177.997 273.445 164.886L271.828 163.709ZM430.593 -1.13317L485.968 39.1438L487.145 37.5263L431.769 -2.75058L430.593 -1.13317ZM452.321 135.442C442.785 148.553 424.396 151.435 411.249 141.873L410.072 143.49C424.11 153.7 443.75 150.627 453.938 136.618L452.321 135.442ZM485.968 39.1438C499.116 48.7066 502.037 67.0885 492.501 80.1998L494.118 81.3762C504.307 67.368 501.182 47.7362 487.145 37.5263L485.968 39.1438ZM389.521 5.29754C399.057 -7.81371 417.445 -10.696 430.593 -1.13317L431.769 -2.75058C417.732 -12.9605 398.092 -9.88709 387.903 4.12112L389.521 5.29754ZM347.723 59.3632C337.534 73.3714 340.66 93.0032 354.697 103.213L355.874 101.596C342.726 92.0328 339.804 73.6509 349.341 60.5396L347.723 59.3632ZM136.368 739.682L80.9924 699.405L79.816 701.023L135.191 741.3L136.368 739.682ZM177.44 733.252C167.903 746.363 149.515 749.245 136.368 739.682L135.191 741.3C149.228 751.51 168.868 748.436 179.057 734.428L177.44 733.252ZM211.087 636.954C224.235 646.516 227.156 664.898 217.62 678.01L219.237 679.186C229.426 665.178 226.301 645.546 212.263 635.336L211.087 636.954ZM114.64 603.107C124.176 589.996 142.564 587.114 155.712 596.677L156.888 595.059C142.851 584.849 123.211 587.923 113.022 601.931L114.64 603.107ZM72.8421 657.173C62.6533 671.181 65.7788 690.813 79.816 701.023L80.9924 699.405C67.8448 689.843 64.9231 671.461 74.4595 658.349L72.8421 657.173ZM253.336 628.905C243.799 642.017 225.411 644.899 212.263 635.336L211.087 636.954C225.124 647.163 244.764 644.09 254.953 630.082L253.336 628.905ZM286.983 532.607C300.13 542.17 303.052 560.552 293.516 573.663L295.133 574.84C305.322 560.832 302.196 541.2 288.159 530.99L286.983 532.607ZM190.535 498.761C200.072 485.65 218.46 482.768 231.608 492.33L232.784 490.713C218.747 480.503 199.107 483.577 188.918 497.585L190.535 498.761ZM148.738 552.827C138.549 566.835 141.675 586.467 155.712 596.677L156.888 595.059C143.741 585.496 140.819 567.114 150.355 554.003L148.738 552.827ZM329.231 524.559C319.695 537.67 301.307 540.553 288.159 530.99L286.983 532.607C301.02 542.817 320.66 539.744 330.849 525.736L329.231 524.559ZM362.879 428.261C376.026 437.824 378.948 456.206 369.411 469.317L371.029 470.494C381.218 456.485 378.092 436.854 364.055 426.644L362.879 428.261ZM266.431 394.415C275.968 381.304 294.356 378.421 307.503 387.984L308.68 386.367C294.643 376.157 275.003 379.23 264.814 393.238L266.431 394.415ZM224.634 448.481C214.445 462.489 217.57 482.121 231.608 492.33L232.784 490.713C219.636 481.15 216.715 462.768 226.251 449.657L224.634 448.481ZM405.127 420.213C395.591 433.324 377.203 436.207 364.055 426.644L362.879 428.261C376.916 438.471 396.556 435.398 406.744 421.389L405.127 420.213ZM438.774 323.915C451.922 333.478 454.844 351.86 445.307 364.971L446.925 366.147C457.113 352.139 453.988 332.507 439.951 322.297L438.774 323.915ZM342.327 290.069C351.863 276.957 370.251 274.075 383.399 283.638L384.576 282.021C370.538 271.811 350.898 274.884 340.71 288.892L342.327 290.069ZM300.529 344.134C290.341 358.143 293.466 377.774 307.503 387.984L308.68 386.367C295.532 376.804 292.61 358.422 302.147 345.311L300.529 344.134ZM481.023 315.867C471.486 328.978 453.098 331.86 439.951 322.297L438.774 323.915C452.812 334.125 472.451 331.051 482.64 317.043L481.023 315.867ZM514.67 219.569C527.818 229.131 530.739 247.513 521.203 260.625L522.82 261.801C533.009 247.793 529.884 228.161 515.847 217.951L514.67 219.569ZM418.223 185.722C427.759 172.611 446.147 169.729 459.295 179.292L460.471 177.674C446.434 167.464 426.794 170.538 416.605 184.546L418.223 185.722ZM376.425 239.788C366.236 253.796 369.362 273.428 383.399 283.638L384.576 282.021C371.428 272.458 368.506 254.076 378.043 240.965L376.425 239.788ZM535.191 74.9455L590.566 115.222L591.742 113.605L536.367 73.3281L535.191 74.9455ZM556.919 211.521C547.382 224.632 528.994 227.514 515.847 217.951L514.67 219.569C528.707 229.779 548.347 226.705 558.536 212.697L556.919 211.521ZM590.566 115.222C603.713 124.785 606.635 143.167 597.099 156.278L598.716 157.455C608.905 143.447 605.779 123.815 591.742 113.605L590.566 115.222ZM494.118 81.3762C503.655 68.2649 522.043 65.3826 535.191 74.9455L536.367 73.3281C522.33 63.1182 502.69 66.1916 492.501 80.1998L494.118 81.3762ZM452.321 135.442C442.132 149.45 445.258 169.082 459.295 179.292L460.471 177.674C447.324 168.111 444.402 149.73 453.938 136.618L452.321 135.442ZM322.218 754.088L282.037 809.33L283.655 810.507L323.835 755.265L322.218 754.088ZM240.965 815.761L185.59 775.484L184.414 777.102L239.789 817.378L240.965 815.761ZM282.037 809.33C272.501 822.442 254.113 825.324 240.965 815.761L239.789 817.378C253.826 827.588 273.466 824.515 283.655 810.507L282.037 809.33ZM315.685 713.032C328.832 722.595 331.754 740.977 322.218 754.088L323.835 755.265C334.024 741.256 330.898 721.625 316.861 711.415L315.685 713.032ZM219.237 679.186C228.774 666.075 247.162 663.192 260.309 672.755L261.486 671.138C247.449 660.928 227.809 664.001 217.62 678.01L219.237 679.186ZM177.44 733.252C167.251 747.26 170.377 766.892 184.414 777.102L185.59 775.484C172.443 765.921 169.521 747.539 179.057 734.428L177.44 733.252ZM398.113 649.742L357.933 704.984L359.551 706.161L399.731 650.918L398.113 649.742ZM357.933 704.984C348.397 718.095 330.009 720.978 316.861 711.415L315.685 713.032C329.722 723.242 349.362 720.169 359.551 706.161L357.933 704.984ZM391.58 608.686C404.728 618.249 407.65 636.631 398.113 649.742L399.731 650.918C409.92 636.91 406.794 617.278 392.757 607.069L391.58 608.686ZM295.133 574.84C304.669 561.729 323.058 558.846 336.205 568.409L337.382 566.792C323.344 556.582 303.704 559.655 293.516 573.663L295.133 574.84ZM253.336 628.905C243.147 642.914 246.272 662.545 260.309 672.755L261.486 671.138C248.338 661.575 245.417 643.193 254.953 630.082L253.336 628.905ZM474.009 545.396L433.829 600.638L435.446 601.814L475.627 546.572L474.009 545.396ZM433.829 600.638C424.293 613.749 405.904 616.631 392.757 607.069L391.58 608.686C405.618 618.896 425.258 615.822 435.446 601.814L433.829 600.638ZM467.476 504.34C480.624 513.903 483.545 532.285 474.009 545.396L475.627 546.572C485.815 532.564 482.69 512.932 468.653 502.722L467.476 504.34ZM371.029 470.494C380.565 457.382 398.953 454.5 412.101 464.063L413.277 462.445C399.24 452.236 379.6 455.309 369.411 469.317L371.029 470.494ZM329.231 524.559C319.043 538.567 322.168 558.199 336.205 568.409L337.382 566.792C324.234 557.229 321.312 538.847 330.849 525.736L329.231 524.559ZM549.905 441.05L509.725 496.292L511.342 497.468L551.522 442.226L549.905 441.05ZM509.725 496.292C500.188 509.403 481.8 512.285 468.653 502.722L467.476 504.34C481.513 514.55 501.153 511.476 511.342 497.468L509.725 496.292ZM543.372 399.994C556.52 409.556 559.441 427.938 549.905 441.05L551.522 442.226C561.711 428.218 558.586 408.586 544.548 398.376L543.372 399.994ZM446.925 366.147C456.461 353.036 474.849 350.154 487.997 359.717L489.173 358.099C475.136 347.889 455.496 350.963 445.307 364.971L446.925 366.147ZM405.127 420.213C394.938 434.221 398.064 453.853 412.101 464.063L413.277 462.445C400.13 452.883 397.208 434.501 406.744 421.389L405.127 420.213ZM625.801 336.703L585.621 391.945L587.238 393.122L627.418 337.88L625.801 336.703ZM585.621 391.945C576.084 405.057 557.696 407.939 544.548 398.376L543.372 399.994C557.409 410.203 577.049 407.13 587.238 393.122L585.621 391.945ZM619.268 295.647C632.415 305.21 635.337 323.592 625.801 336.703L627.418 337.88C637.607 323.872 634.481 304.24 620.444 294.03L619.268 295.647ZM522.82 261.801C532.357 248.69 550.745 245.808 563.893 255.37L565.069 253.753C551.032 243.543 531.392 246.616 521.203 260.625L522.82 261.801ZM481.023 315.867C470.834 329.875 473.96 349.507 487.997 359.717L489.173 358.099C476.026 348.536 473.104 330.154 482.64 317.043L481.023 315.867ZM639.788 151.024L695.164 191.301L696.34 189.684L640.965 149.407L639.788 151.024ZM701.696 232.357L661.516 287.599L663.134 288.776L703.314 233.533L701.696 232.357ZM661.516 287.599C651.98 300.71 633.592 303.593 620.444 294.03L619.268 295.647C633.305 305.857 652.945 302.784 663.134 288.776L661.516 287.599ZM695.164 191.301C708.311 200.864 711.233 219.246 701.696 232.357L703.314 233.533C713.503 219.525 710.377 199.894 696.34 189.684L695.164 191.301ZM598.716 157.455C608.253 144.344 626.641 141.461 639.788 151.024L640.965 149.407C626.928 139.197 607.288 142.27 597.099 156.278L598.716 157.455ZM556.919 211.521C546.73 225.529 549.855 245.16 563.893 255.37L565.069 253.753C551.921 244.19 549 225.808 558.536 212.697L556.919 211.521Z" fill="url(#paint0_linear_215_639)" fill-opacity="0.8" mask="url(#path-1-inside-1_215_639)"/>
<defs>
<linearGradient id="paint0_linear_215_639" x1="-78" y1="701.5" x2="653.738" y2="-127.124" gradientUnits="userSpaceOnUse">
<stop offset="0.139732" stop-color="#F7D4F4" stop-opacity="0.05"/>
<stop offset="0.325963" stop-color="#F7D4F4" stop-opacity="0.3"/>
<stop offset="0.67769" stop-color="#F7D4F4" stop-opacity="0.05"/>
</linearGradient>
</defs>
</svg>
